<svg width="300" height="300" viewBox="0 0 300 300" fill="none" xmlns="http://www.w3.org/2000/svg">
<path d="M150 256.536C214.249 256.536 266.334 253.495 266.334 249.744C266.334 245.993 214.249 242.952 150 242.952C85.7505 242.952 33.666 245.993 33.666 249.744C33.666 253.495 85.7505 256.536 150 256.536Z" fill="#D9E7F9"/>
<path d="M226.53 65.49H157.476C155.107 65.5289 152.839 66.4493 151.112 68.0713C149.386 69.6933 148.326 71.9006 148.14 74.262L137.4 239.598C137.312 240.724 137.46 241.855 137.834 242.921C138.208 243.987 138.799 244.963 139.571 245.787C140.342 246.612 141.277 247.267 142.315 247.71C143.353 248.154 144.473 248.377 145.602 248.364H214.68C217.048 248.327 219.317 247.408 221.043 245.786C222.77 244.165 223.83 241.959 224.016 239.598L231.72 120.762C232.047 120.648 232.335 120.442 232.547 120.168C232.76 119.894 232.89 119.565 232.92 119.22L234.3 97.956C234.324 97.6257 234.24 97.2964 234.06 97.0182C233.88 96.74 233.615 96.5279 233.304 96.414L234.738 74.262C234.825 73.1354 234.678 72.003 234.304 70.9367C233.93 69.8704 233.338 68.8936 232.566 68.0685C231.794 67.2434 230.858 66.5881 229.819 66.1442C228.78 65.7002 227.66 65.4775 226.53 65.49Z" fill="#236DC8"/>
<path d="M142.548 108.3H143.904C144.324 108.293 144.726 108.129 145.032 107.842C145.338 107.555 145.526 107.164 145.56 106.746L146.16 97.8661C146.175 97.6663 146.148 97.4656 146.082 97.2767C146.015 97.0877 145.91 96.9147 145.773 96.7686C145.636 96.6225 145.47 96.5065 145.285 96.4279C145.101 96.3493 144.902 96.3099 144.702 96.3121H143.352C142.932 96.3183 142.53 96.481 142.223 96.7685C141.917 97.0559 141.729 97.4473 141.696 97.8661L141.096 106.746C141.081 106.945 141.108 107.146 141.174 107.334C141.24 107.523 141.345 107.695 141.481 107.841C141.618 107.987 141.783 108.104 141.967 108.182C142.15 108.261 142.348 108.301 142.548 108.3Z" fill="#236DC8"/>
<path d="M141.522 124.152H142.872C143.293 124.144 143.697 123.981 144.004 123.692C144.311 123.404 144.5 123.012 144.534 122.592L145.134 113.718C145.149 113.518 145.122 113.317 145.056 113.128C144.989 112.94 144.884 112.767 144.747 112.62C144.609 112.474 144.444 112.358 144.259 112.28C144.075 112.201 143.876 112.162 143.676 112.164H142.326C141.905 112.17 141.502 112.333 141.195 112.62C140.887 112.907 140.698 113.299 140.664 113.718L140.064 122.592C140.047 122.792 140.073 122.994 140.139 123.184C140.204 123.374 140.31 123.548 140.447 123.695C140.584 123.842 140.751 123.959 140.936 124.038C141.121 124.116 141.321 124.155 141.522 124.152Z" fill="#236DC8"/>
<path d="M211.008 248.364H141.954C140.825 248.377 139.706 248.154 138.667 247.71C137.629 247.267 136.694 246.612 135.923 245.787C135.151 244.963 134.56 243.987 134.186 242.921C133.812 241.855 133.665 240.724 133.752 239.598L144.468 74.2619C144.656 71.9 145.717 69.6927 147.444 68.0708C149.171 66.4489 151.441 65.5287 153.81 65.4899H222.858C223.987 65.4782 225.107 65.7016 226.145 66.1459C227.184 66.5902 228.118 67.2457 228.89 68.0707C229.661 68.8957 230.252 69.8722 230.626 70.9381C231 72.0039 231.147 73.1359 231.06 74.2619L220.344 239.598C220.158 241.959 219.098 244.165 217.371 245.786C215.645 247.407 213.376 248.327 211.008 248.364Z" fill="#263238"/>
<path opacity="0.2" d="M181.175 241.334C183.594 238.992 183.776 235.256 181.582 232.99C179.388 230.723 175.648 230.784 173.229 233.125C170.81 235.467 170.628 239.203 172.822 241.469C175.016 243.736 178.756 243.675 181.175 241.334Z" fill="white"/>
<path d="M217.248 226.902H138.75C138.483 226.902 138.218 226.847 137.973 226.74C137.728 226.634 137.507 226.478 137.324 226.283C137.142 226.088 137.001 225.858 136.911 225.606C136.82 225.354 136.783 225.087 136.8 224.82L145.986 83.028C146.027 82.5383 146.249 82.0816 146.61 81.7483C146.972 81.415 147.445 81.2294 147.936 81.228H226.44C226.707 81.2283 226.972 81.2833 227.217 81.3898C227.462 81.4962 227.683 81.6518 227.866 81.8469C228.048 82.042 228.189 82.2725 228.279 82.5242C228.37 82.7758 228.407 83.0433 228.39 83.31L219.198 225.072C219.166 225.568 218.947 226.032 218.585 226.372C218.222 226.712 217.745 226.902 217.248 226.902Z" fill="white"/>
<path opacity="0.2" d="M195.346 171.016C204.126 162.515 204.787 148.954 196.822 140.726C188.856 132.498 175.281 132.718 166.5 141.218C157.72 149.718 157.059 163.279 165.024 171.508C172.99 179.736 186.565 179.516 195.346 171.016Z" fill="#236DC8"/>
<path opacity="0.2" d="M178.8 189.156C160.578 189.156 146.712 174.33 147.894 156.108C149.076 137.886 164.856 123.06 183.084 123.06C201.312 123.06 215.172 137.886 213.99 156.108C212.808 174.33 197.004 189.156 178.8 189.156ZM183 123.66C165.108 123.66 149.61 138.216 148.452 156.108C147.294 174 160.902 188.556 178.794 188.556C196.686 188.556 212.184 174 213.348 156.108C214.512 138.216 200.916 123.66 183 123.66Z" fill="#236DC8"/>
<path d="M175.8 166.494L174 163.02C170.1 155.454 161.118 148.692 157.98 146.724L160.944 142.29C164.658 144.618 172.08 150.384 176.736 157.236C185.346 147.036 197.514 136.53 213.804 125.196L216.582 129.396C199.182 141.504 186.66 152.574 178.332 163.242L175.8 166.494Z" fill="#236DC8"/>
<path opacity="0.2" d="M174.949 74.9283C175.928 73.981 176 72.4681 175.11 71.5491C174.22 70.6301 172.706 70.653 171.727 71.6002C170.749 72.5475 170.677 74.0604 171.566 74.9795C172.456 75.8985 173.971 75.8756 174.949 74.9283Z" fill="white"/>
<path opacity="0.2" d="M181.746 70.872H201.6C201.909 70.8684 202.215 70.9293 202.498 71.0509C202.782 71.1725 203.037 71.3521 203.247 71.5781C203.457 71.8041 203.618 72.0715 203.719 72.3632C203.819 72.6549 203.858 72.9645 203.832 73.272C203.783 73.9169 203.495 74.5203 203.024 74.9642C202.554 75.408 201.935 75.6604 201.288 75.672H181.44C181.131 75.6746 180.826 75.613 180.542 75.4912C180.259 75.3693 180.004 75.1898 179.793 74.9642C179.583 74.7385 179.421 74.4715 179.32 74.1802C179.218 73.8889 179.178 73.5796 179.202 73.272C179.251 72.627 179.539 72.0236 180.01 71.5798C180.48 71.1359 181.099 70.8835 181.746 70.872Z" fill="white"/>
</svg>
