<svg width="300" height="300" viewBox="0 0 300 300" fill="none" xmlns="http://www.w3.org/2000/svg">
<path d="M148.836 262.536C213.085 262.536 265.17 259.495 265.17 255.744C265.17 251.993 213.085 248.952 148.836 248.952C84.5865 248.952 32.502 251.993 32.502 255.744C32.502 259.495 84.5865 262.536 148.836 262.536Z" fill="#D9E7F9"/>
<path d="M192.99 74.4658C192.99 74.4658 196.632 73.4338 206.424 74.8558C206.424 74.8558 206.154 90.7078 204.504 98.6698C200.793 99.0135 197.051 98.8114 193.398 98.0698C193.398 98.0698 195.288 80.1958 192.99 74.4658Z" fill="white"/>
<path d="M192.504 74.8261L199.59 74.7661L207.066 75.6121L206.208 86.7001L207.036 97.6321L199.986 97.3681L192.702 98.2081L192.804 86.6161L192.504 74.8261Z" fill="#236DC8"/>
<path opacity="0.6" d="M192.504 74.8261L199.59 74.7661L207.066 75.6121L206.208 86.7001L207.036 97.6321L199.986 97.3681L192.702 98.2081L192.804 86.6161L192.504 74.8261Z" fill="white"/>
<path opacity="0.1" d="M206.208 86.7001L207.066 75.6121L199.59 74.7661L199.488 87.2341L199.986 97.3681L207.036 97.6321L206.208 86.7001Z" fill="#2E3033"/>
<path opacity="0.1" d="M192.804 86.6159L199.5 86.2559L206.208 86.6999L207.036 97.6319L199.986 97.3679L192.702 98.2079L192.804 86.6159Z" fill="#2E3033"/>
<path d="M203.898 110.586L206.298 100.854C206.298 100.854 208.968 99.252 209.184 97.482C209.4 95.712 206.58 90.744 206.028 90.75C205.476 90.756 201.906 93.432 201.912 94.218C201.918 95.004 202.626 99.228 202.626 99.228L197.76 108.666L203.898 110.586Z" fill="#E2877B"/>
<path d="M175.41 95.5918C179.544 98.3338 188.724 111.69 191.01 111.498C193.944 111.246 198.81 101.4 198.81 101.4L207.84 106.842C207.84 106.842 197.268 128.202 191.37 126.858C185.472 125.514 174.288 109.128 173.526 106.716C172.764 104.304 170.286 92.1898 175.41 95.5918Z" fill="#236DC8"/>
<path opacity="0.4" d="M175.41 95.5918C179.544 98.3338 188.724 111.69 191.01 111.498C193.944 111.246 198.81 101.4 198.81 101.4L207.84 106.842C207.84 106.842 197.268 128.202 191.37 126.858C185.472 125.514 174.288 109.128 173.526 106.716C172.764 104.304 170.286 92.1898 175.41 95.5918Z" fill="#2E3033"/>
<path d="M176.214 96.8457C174.191 94.5659 171.382 93.1344 168.348 92.8377C163.332 92.3877 158.94 92.3457 158.94 92.3457C155.516 93.7629 152.233 95.5006 149.136 97.5357C144.984 100.44 153.486 141.258 153.486 141.258H180.096C180.096 141.258 180.546 102 176.214 96.8457Z" fill="#236DC8"/>
<path opacity="0.2" d="M176.214 96.8457C174.191 94.5659 171.382 93.1344 168.348 92.8377C163.332 92.3877 158.94 92.3457 158.94 92.3457C155.516 93.7629 152.233 95.5006 149.136 97.5357C144.984 100.44 153.486 141.258 153.486 141.258H180.096C180.096 141.258 180.546 102 176.214 96.8457Z" fill="#2E3033"/>
<path d="M176.826 255.126L181.998 255.672L182.97 244.512L177.798 243.966L176.826 255.126Z" fill="#E2877B"/>
<path d="M151.008 254.748H156.018L156.438 243.132H151.416L151.008 254.748Z" fill="#E2877B"/>
<path d="M156.714 254.166H150.6C150.5 254.166 150.403 254.201 150.326 254.265C150.248 254.328 150.195 254.416 150.174 254.514L149.184 258.978C149.145 259.169 149.183 259.369 149.289 259.533C149.396 259.697 149.563 259.812 149.754 259.854C149.808 259.863 149.862 259.863 149.916 259.854C151.89 259.824 153.324 259.704 155.796 259.704C157.32 259.704 161.922 259.866 164.028 259.866C166.134 259.866 166.428 257.784 165.546 257.592C161.682 256.752 158.772 255.582 157.536 254.472C157.31 254.27 157.017 254.16 156.714 254.166Z" fill="#2E353A"/>
<path d="M157.062 254.862C157.039 254.856 157.017 254.843 157.001 254.825C156.985 254.807 156.975 254.784 156.972 254.76C156.966 254.738 156.968 254.714 156.978 254.693C156.988 254.672 157.005 254.655 157.026 254.646C157.206 254.532 158.826 253.536 159.384 253.824C159.446 253.854 159.498 253.901 159.534 253.959C159.571 254.018 159.589 254.085 159.588 254.154C159.603 254.273 159.587 254.393 159.543 254.504C159.499 254.615 159.428 254.714 159.336 254.79C159.054 254.981 158.716 255.072 158.376 255.048C157.933 255.034 157.492 254.972 157.062 254.862ZM157.404 254.694C157.993 254.899 158.639 254.867 159.204 254.604C159.264 254.552 159.31 254.486 159.337 254.411C159.364 254.337 159.372 254.256 159.36 254.178C159.36 254.082 159.318 254.04 159.288 254.04C159.237 254.025 159.183 254.025 159.132 254.04C158.519 254.144 157.932 254.366 157.404 254.694Z" fill="#236DC8"/>
<path d="M157.026 254.886C157.009 254.874 156.995 254.858 156.985 254.839C156.976 254.82 156.971 254.799 156.972 254.778C156.972 254.706 157.098 253.266 157.68 252.798C157.747 252.735 157.827 252.689 157.914 252.662C158.001 252.635 158.094 252.628 158.184 252.642C158.274 252.643 158.361 252.674 158.431 252.731C158.501 252.787 158.549 252.866 158.568 252.954C158.67 253.482 157.668 254.586 157.152 254.868H157.092C157.072 254.88 157.049 254.886 157.026 254.886ZM157.83 252.936C157.475 253.385 157.266 253.931 157.23 254.502C157.752 254.118 158.388 253.302 158.322 252.954C158.322 252.954 158.322 252.834 158.148 252.834H158.094C157.997 252.835 157.903 252.872 157.83 252.936Z" fill="#236DC8"/>
<path d="M182.544 254.01H176.454C176.355 254.01 176.259 254.044 176.181 254.106C176.104 254.168 176.05 254.255 176.028 254.352L175.038 258.816C175.018 258.911 175.017 259.009 175.034 259.104C175.052 259.2 175.088 259.291 175.141 259.372C175.194 259.454 175.263 259.524 175.343 259.579C175.423 259.633 175.513 259.672 175.608 259.692C175.664 259.698 175.72 259.698 175.776 259.692C177.744 259.662 179.178 259.536 181.656 259.536C183.18 259.536 187.776 259.698 189.882 259.698C191.988 259.698 192.282 257.616 191.4 257.43C187.536 256.584 184.626 255.42 183.39 254.31C183.157 254.104 182.854 253.997 182.544 254.01Z" fill="#2E353A"/>
<path d="M182.892 254.7C182.868 254.695 182.846 254.682 182.83 254.664C182.814 254.645 182.804 254.622 182.802 254.598C182.798 254.575 182.802 254.552 182.813 254.531C182.824 254.51 182.841 254.494 182.862 254.484C183.036 254.37 184.662 253.374 185.214 253.662C185.276 253.692 185.327 253.739 185.363 253.798C185.399 253.856 185.418 253.923 185.418 253.992C185.434 254.112 185.42 254.233 185.376 254.346C185.331 254.458 185.259 254.557 185.166 254.634C184.885 254.827 184.546 254.916 184.206 254.886C183.762 254.875 183.321 254.813 182.892 254.7ZM183.234 254.538C183.824 254.737 184.467 254.705 185.034 254.448C185.093 254.395 185.138 254.329 185.166 254.255C185.193 254.18 185.201 254.1 185.19 254.022C185.19 253.926 185.148 253.878 185.118 253.878C185.07 253.853 185.016 253.843 184.962 253.848C184.347 253.966 183.761 254.2 183.234 254.538Z" fill="#236DC8"/>
<path d="M182.862 254.73C182.843 254.719 182.828 254.703 182.817 254.684C182.807 254.665 182.801 254.644 182.802 254.622C182.802 254.55 182.928 253.11 183.51 252.636C183.577 252.574 183.657 252.529 183.745 252.503C183.832 252.477 183.924 252.471 184.014 252.486C184.105 252.483 184.194 252.513 184.264 252.571C184.335 252.628 184.382 252.709 184.398 252.798C184.5 253.326 183.498 254.43 182.982 254.706H182.922C182.914 254.714 182.905 254.72 182.894 254.724C182.884 254.728 182.873 254.73 182.862 254.73ZM183.66 252.774C183.305 253.225 183.096 253.773 183.06 254.346C183.576 253.956 184.212 253.146 184.146 252.798C184.146 252.762 184.146 252.672 183.978 252.672H183.918C183.824 252.678 183.733 252.714 183.66 252.774Z" fill="#236DC8"/>
<path opacity="0.2" d="M151.416 243.138H156.438L156.216 249.126H151.2L151.416 243.138Z" fill="#2E3033"/>
<path d="M153.486 141.258H180.096C182.628 155.058 190.2 208.176 184.518 251.742L175.518 250.62C175.518 250.62 176.718 188.58 168.75 167.22C167.832 178.662 166.746 190.836 165.804 197.316C163.488 213.264 158.316 251.028 158.316 251.028H149.136C149.136 251.028 151.224 214.752 152.094 199.08C153.042 182.052 153.45 144.75 153.486 141.258Z" fill="#263238"/>
<g opacity="0.3">
<path d="M153.486 141.258H180.096C182.628 155.058 190.2 208.176 184.518 251.742L175.518 250.62C175.518 250.62 176.718 188.58 168.75 167.22C167.832 178.662 166.746 190.836 165.804 197.316C163.488 213.264 158.316 251.028 158.316 251.028H149.136C149.136 251.028 151.224 214.752 152.094 199.08C153.042 182.052 153.45 144.75 153.486 141.258Z" fill="white"/>
</g>
<path opacity="0.2" d="M168.738 167.202C170.048 170.95 171.042 174.801 171.708 178.716C172.452 168.516 169.476 157.716 169.476 157.716L168.738 167.202Z" fill="#2E3033"/>
<path d="M156.99 80.6278C156.99 80.6278 157.188 85.5118 160.998 84.3658C164.808 83.2198 160.356 78.8818 156.99 80.6278Z" fill="#2E353A"/>
<path d="M168.348 92.8381C167.558 92.2167 166.969 91.3748 166.657 90.4189C166.345 89.463 166.324 88.4361 166.596 87.4681L159.708 81.9121C159.708 81.9121 160.602 88.7401 158.94 92.3461C158.94 92.3461 163.092 96.5461 166.266 95.5981C169.44 94.6501 168.348 92.8381 168.348 92.8381Z" fill="#E2877B"/>
<path opacity="0.2" d="M161.256 85.248L163.98 85.362L166.596 87.468C166.364 88.3993 166.376 89.375 166.632 90.3C162.456 89.628 161.256 85.248 161.256 85.248Z" fill="#2E3033"/>
<path d="M176.202 71.4299C176.202 71.4299 176.562 75.1799 173.628 76.0139C173.628 76.0139 171.966 71.8139 173.988 71.4299C176.01 71.0459 176.202 71.4299 176.202 71.4299Z" fill="#2E353A"/>
<path d="M173.682 81.9899C173.22 84.6479 171.228 90.2039 165.6 88.5119C159.972 86.8199 159.726 82.3739 159.63 81.0899C159.534 79.8059 160.734 69.8519 164.334 68.9039C167.934 67.9559 172.302 69.1259 173.682 71.1839C175.062 73.2419 173.682 81.9899 173.682 81.9899Z" fill="#E2877B"/>
<path d="M171 78.642C170.817 78.4251 170.559 78.2842 170.277 78.2465C169.996 78.2088 169.71 78.277 169.476 78.438" stroke="#2E3033" stroke-width="0.5" stroke-miterlimit="10" stroke-linecap="round"/>
<path d="M169.578 77.868C169.518 78.21 169.446 78.642 169.374 79.032C169.358 79.1146 169.325 79.1931 169.278 79.263C169.231 79.3328 169.17 79.3927 169.1 79.439C169.03 79.4853 168.951 79.5172 168.868 79.5328C168.785 79.5485 168.7 79.5475 168.618 79.53L166.182 79.026C166.023 78.9953 165.882 78.9046 165.788 78.7728C165.695 78.641 165.655 78.4781 165.678 78.318L165.834 77.148C165.846 77.0608 165.876 76.977 165.922 76.9018C165.968 76.8266 166.029 76.7617 166.101 76.7111C166.173 76.6604 166.254 76.6251 166.341 76.6074C166.427 76.5897 166.516 76.5899 166.602 76.608L169.08 77.148C169.239 77.1814 169.38 77.2747 169.473 77.4087C169.565 77.5426 169.603 77.707 169.578 77.868V77.868Z" stroke="#2E3033" stroke-width="0.5" stroke-linecap="round" stroke-linejoin="round"/>
<path d="M174.432 78.5998C174.432 78.9478 174.36 79.3858 174.306 79.7998C174.294 79.8826 174.265 79.9621 174.222 80.0338C174.178 80.1055 174.121 80.168 174.054 80.2176C173.987 80.2672 173.91 80.303 173.829 80.3229C173.747 80.3429 173.663 80.3466 173.58 80.3338L171.456 80.0218C171.29 79.9965 171.14 79.9069 171.039 79.7722C170.938 79.6376 170.894 79.4686 170.916 79.3018L171.078 78.1738C171.09 78.0904 171.118 78.0103 171.161 77.9379C171.204 77.8655 171.261 77.8024 171.328 77.7522C171.396 77.7019 171.473 77.6656 171.554 77.6453C171.636 77.625 171.721 77.6211 171.804 77.6338L173.892 77.9458C174.05 77.961 174.196 78.0384 174.297 78.161C174.399 78.2837 174.447 78.4415 174.432 78.5998Z" stroke="#2E3033" stroke-width="0.5" stroke-linecap="round" stroke-linejoin="round"/>
<path d="M159.954 77.8799C159.864 77.9939 163.68 80.2799 163.554 72.3839C163.554 72.3839 166.314 73.5839 166.95 70.4279C166.95 70.4279 178.5 74.4119 177.348 69.9239C175.812 63.9239 166.476 63.4739 162.45 66.6059C162.45 66.6059 160.452 64.3739 158.574 66.7859C156.324 69.6659 156.36 77.4779 156.36 77.4779L159.954 77.8799Z" fill="#2E353A"/>
<path d="M165.768 77.6516C165.768 77.6516 158.616 74.7356 157.206 76.9496" stroke="#2E3033" stroke-width="0.5" stroke-miterlimit="10" stroke-linecap="round"/>
<path d="M167.184 77.922C167.088 78.312 167.268 78.678 167.532 78.72C167.796 78.762 168.054 78.474 168.132 78.078C168.21 77.682 168.042 77.322 167.784 77.28C167.526 77.238 167.25 77.52 167.184 77.922Z" fill="#2E353A"/>
<path d="M172.134 78.6898C172.038 79.0798 172.224 79.4518 172.482 79.4938C172.74 79.5358 173.01 79.2478 173.082 78.8518C173.154 78.4558 172.992 78.0898 172.734 78.0478C172.476 78.0058 172.2 78.3118 172.134 78.6898Z" fill="#2E353A"/>
<path d="M170.22 78.6421C170.489 79.9428 170.935 81.2005 171.546 82.3801C171.236 82.524 170.898 82.5986 170.556 82.5986C170.214 82.5986 169.876 82.524 169.566 82.3801L170.22 78.6421Z" fill="#DC5753"/>
<path d="M168.516 75.3418C168.478 75.3213 168.436 75.3105 168.393 75.3105C168.35 75.3105 168.308 75.3213 168.27 75.3418C168.024 75.5114 167.742 75.621 167.446 75.6617C167.15 75.7023 166.848 75.6729 166.566 75.5758C166.538 75.5628 166.507 75.5557 166.476 75.5547C166.445 75.5538 166.414 75.559 166.385 75.5702C166.356 75.5814 166.329 75.5982 166.307 75.6198C166.284 75.6414 166.266 75.6672 166.254 75.6958C166.229 75.7532 166.228 75.8178 166.251 75.8761C166.273 75.9343 166.317 75.9816 166.374 76.0078C166.726 76.1384 167.104 76.1826 167.477 76.1367C167.85 76.0908 168.206 75.956 168.516 75.7438C168.543 75.7284 168.567 75.7075 168.586 75.6826C168.605 75.6576 168.618 75.6291 168.625 75.5987C168.633 75.5683 168.634 75.5367 168.628 75.506C168.623 75.4752 168.611 75.4458 168.594 75.4198C168.571 75.391 168.545 75.3649 168.516 75.3418Z" fill="#2E353A"/>
<path d="M165.492 83.19C166.035 82.9718 166.624 82.8879 167.206 82.9453C167.789 83.0027 168.35 83.1999 168.84 83.52C168.862 83.5435 168.875 83.5746 168.875 83.607C168.875 83.6394 168.862 83.6706 168.84 83.694C168.818 83.716 168.787 83.7283 168.756 83.7283C168.725 83.7283 168.694 83.716 168.672 83.694C168.213 83.4065 167.692 83.2306 167.152 83.1806C166.613 83.1306 166.069 83.2078 165.564 83.406C165.534 83.4167 165.5 83.4159 165.471 83.4037C165.441 83.3916 165.416 83.3689 165.402 83.34C165.395 83.3255 165.391 83.3097 165.39 83.2936C165.39 83.2775 165.392 83.2614 165.398 83.2463C165.403 83.2312 165.412 83.2173 165.423 83.2056C165.434 83.1939 165.447 83.1845 165.462 83.178L165.492 83.19Z" fill="#2E353A"/>
<path d="M171.816 75.5997C171.77 75.5939 171.723 75.6045 171.684 75.6297C171.641 75.6753 171.618 75.7354 171.618 75.7977C171.618 75.8601 171.641 75.9202 171.684 75.9657C171.936 76.246 172.252 76.4615 172.605 76.5941C172.958 76.7268 173.338 76.7726 173.712 76.7277C173.774 76.716 173.829 76.6806 173.865 76.629C173.9 76.5774 173.915 76.5137 173.904 76.4517C173.891 76.3907 173.855 76.3369 173.804 76.3012C173.753 76.2656 173.69 76.2507 173.628 76.2597C173.334 76.2918 173.036 76.2542 172.759 76.1499C172.481 76.0457 172.233 75.8778 172.032 75.6597C172.003 75.6333 171.969 75.6141 171.931 75.6037C171.894 75.5933 171.854 75.5919 171.816 75.5997Z" fill="#2E353A"/>
<path d="M190.872 151.068L173.604 146.268L176.322 136.542C176.37 136.369 176.458 136.21 176.579 136.078C176.7 135.946 176.85 135.843 177.018 135.78L186.096 132.378C186.321 132.293 186.568 132.282 186.8 132.347C187.032 132.412 187.237 132.548 187.386 132.738L193.386 140.352C193.498 140.493 193.574 140.658 193.61 140.834C193.645 141.01 193.638 141.193 193.59 141.366L190.872 151.068Z" fill="#236DC8"/>
<path opacity="0.5" d="M190.872 151.068L173.604 146.268L176.322 136.542C176.37 136.369 176.458 136.21 176.579 136.078C176.7 135.946 176.85 135.843 177.018 135.78L186.096 132.378C186.321 132.293 186.568 132.282 186.8 132.347C187.032 132.412 187.237 132.548 187.386 132.738L193.386 140.352C193.498 140.493 193.574 140.658 193.61 140.834C193.645 141.01 193.638 141.193 193.59 141.366L190.872 151.068Z" fill="white"/>
<path opacity="0.5" d="M191.04 146.726L185.599 145.244L184.795 148.197L190.237 149.678L191.04 146.726Z" fill="white"/>
<path opacity="0.1" d="M176.322 136.518L184.956 138.558L193.59 141.336L184.782 139.086L176.322 136.518Z" fill="#2E3033"/>
<path d="M160.41 139.134L170.046 141.918C170.046 141.918 171.546 144.648 173.31 144.918C175.074 145.188 180.138 142.566 180.156 142.014C180.174 141.462 177.63 137.814 176.844 137.766C176.058 137.718 171.81 138.294 171.81 138.294L162.564 133.08L160.41 139.134Z" fill="#E2877B"/>
<path d="M151.092 96.996C145.002 97.644 142.548 106.824 141.702 111.396C140.874 115.872 138.618 129.822 143.748 133.596C148.878 137.37 164.328 143.934 164.328 143.934L168.396 133.296C168.396 133.296 155.64 128.208 152.526 125.61C150.042 123.534 151.806 109.932 152.136 107.892C152.61 105 153.954 96.69 151.092 96.996Z" fill="#236DC8"/>
<path opacity="0.4" d="M151.092 96.996C145.002 97.644 142.548 106.824 141.702 111.396C140.874 115.872 138.618 129.822 143.748 133.596C148.878 137.37 164.328 143.934 164.328 143.934L168.396 133.296C168.396 133.296 155.64 128.208 152.526 125.61C150.042 123.534 151.806 109.932 152.136 107.892C152.61 105 153.954 96.69 151.092 96.996Z" fill="#2E3033"/>
<path d="M161.154 78.4859C161.154 78.4859 160.146 75.7019 157.554 75.6899C155.484 75.6899 155.19 78.2699 156.132 80.0579C156.852 81.4319 159.216 83.1479 160.722 81.3539C162.228 79.5599 161.154 78.4859 161.154 78.4859Z" fill="#E2877B"/>
<path opacity="0.2" d="M170.31 106.152V113.676L173.604 115.296L176.922 113.52V106.152H170.31Z" fill="white"/>
<path d="M236.55 141.168H233.376V256.38H236.55V141.168Z" fill="#263238"/>
<path opacity="0.7" d="M236.55 141.168H233.376V256.38H236.55V141.168Z" fill="white"/>
<path d="M239.502 141.168H236.328V256.38H239.502V141.168Z" fill="#263238"/>
<path opacity="0.4" d="M239.502 141.168H236.328V256.38H239.502V141.168Z" fill="white"/>
<path d="M243.15 115.716C242.946 115.716 242.742 115.716 242.55 115.716H221.772V144.168H250.266C250.529 144.169 250.79 144.118 251.034 144.017C251.277 143.917 251.499 143.769 251.685 143.583C251.871 143.397 252.019 143.176 252.119 142.932C252.219 142.689 252.271 142.428 252.27 142.164V124.836C252.271 123.638 252.035 122.452 251.577 121.345C251.119 120.238 250.448 119.233 249.601 118.386C248.754 117.539 247.748 116.867 246.641 116.409C245.534 115.951 244.348 115.716 243.15 115.716Z" fill="#263238"/>
<path opacity="0.2" d="M243.15 115.716C242.946 115.716 242.742 115.716 242.55 115.716H221.772V144.168H250.266C250.529 144.169 250.79 144.118 251.034 144.017C251.277 143.917 251.499 143.769 251.685 143.583C251.871 143.397 252.019 143.176 252.119 142.932C252.219 142.689 252.271 142.428 252.27 142.164V124.836C252.271 123.638 252.035 122.452 251.577 121.345C251.119 120.238 250.448 119.233 249.601 118.386C248.754 117.539 247.748 116.867 246.641 116.409C245.534 115.951 244.348 115.716 243.15 115.716Z" fill="white"/>
<path d="M230.892 144.168H212.652V124.836C212.652 122.418 213.613 120.098 215.323 118.387C217.033 116.677 219.353 115.716 221.772 115.716C222.97 115.716 224.156 115.951 225.263 116.409C226.37 116.867 227.376 117.539 228.223 118.386C229.07 119.233 229.741 120.238 230.199 121.345C230.657 122.452 230.893 123.638 230.892 124.836V144.168Z" fill="#263238"/>
<path opacity="0.1" d="M230.892 144.168H212.652V124.836C212.652 122.418 213.613 120.098 215.323 118.387C217.033 116.677 219.353 115.716 221.772 115.716C222.97 115.716 224.156 115.951 225.263 116.409C226.37 116.867 227.376 117.539 228.223 118.386C229.07 119.233 229.741 120.238 230.199 121.345C230.657 122.452 230.893 123.638 230.892 124.836V144.168Z" fill="white"/>
<g opacity="0.2">
<path d="M230.892 124.836C230.893 123.638 230.657 122.452 230.199 121.345C229.741 120.238 229.07 119.233 228.222 118.386C227.375 117.539 226.37 116.867 225.263 116.409C224.156 115.951 222.97 115.716 221.772 115.716C220.017 115.717 218.299 116.223 216.824 117.174C215.35 118.126 214.18 119.482 213.456 121.08L230.892 137.616V124.836Z" fill="#2E3033"/>
</g>
<path d="M253.428 112.884C253.428 112.217 253.163 111.578 252.692 111.106C252.22 110.635 251.581 110.37 250.914 110.37H248.184C247.611 110.37 247.062 110.598 246.657 111.003C246.252 111.408 246.024 111.957 246.024 112.53V127.374C245.426 127.507 244.901 127.864 244.557 128.372C244.213 128.879 244.077 129.499 244.176 130.104C244.255 130.619 244.504 131.094 244.881 131.453C245.259 131.813 245.745 132.037 246.264 132.09C246.846 132.145 247.429 131.986 247.902 131.641C248.375 131.297 248.706 130.792 248.833 130.221C248.96 129.65 248.874 129.052 248.591 128.54C248.308 128.028 247.847 127.637 247.296 127.44V116.4C247.298 116.143 247.4 115.896 247.582 115.715C247.764 115.533 248.011 115.43 248.268 115.428H250.914C251.246 115.427 251.575 115.361 251.882 115.232C252.189 115.104 252.467 114.916 252.701 114.679C252.934 114.443 253.119 114.163 253.244 113.854C253.368 113.546 253.431 113.217 253.428 112.884Z" fill="#263238"/>
<path d="M230.892 144.168H212.652L205.722 139.368C200.712 135.906 200.73 133.098 205.77 133.098C210.804 133.098 218.97 135.906 223.962 139.368L230.892 144.168Z" fill="#263238"/>
<path opacity="0.2" d="M230.892 144.168H212.652L205.722 139.368C200.712 135.906 200.73 133.098 205.77 133.098C210.804 133.098 218.97 135.906 223.962 139.368L230.892 144.168Z" fill="white"/>
</svg>
