<svg width="300" height="300" viewBox="0 0 300 300" fill="none" xmlns="http://www.w3.org/2000/svg">
<path d="M150 256.536C214.249 256.536 266.334 253.495 266.334 249.744C266.334 245.993 214.249 242.952 150 242.952C85.7505 242.952 33.666 245.993 33.666 249.744C33.666 253.495 85.7505 256.536 150 256.536Z" fill="#D9E7F9"/>
<path d="M116.778 243.408L112.548 242.034L115.176 232.056L119.406 233.43L116.778 243.408Z" fill="#FF8B7B"/>
<path d="M112.482 241.47L117.234 243.012C117.314 243.036 117.382 243.09 117.423 243.162C117.465 243.235 117.476 243.321 117.456 243.402L116.466 247.242C116.403 247.44 116.264 247.604 116.079 247.7C115.895 247.796 115.68 247.814 115.482 247.752C113.838 247.188 113.082 246.834 110.988 246.156C109.698 245.736 105.462 244.644 103.686 244.068C101.91 243.492 102.528 241.752 103.332 241.836C106.932 242.214 110.172 242.046 111.672 241.494C111.932 241.397 112.217 241.388 112.482 241.47Z" fill="#263238"/>
<path opacity="0.2" d="M119.406 233.436L115.176 232.056L113.82 237.204L118.056 238.578L119.406 233.436Z" fill="black"/>
<path d="M130.968 132.432C130.968 132.432 123.378 167.562 121.596 180.192C119.646 194.022 112.32 235.554 112.32 235.554L120.174 237.726C120.174 237.726 131.058 197.448 134.238 184.002C137.688 169.404 146.838 132.402 146.838 132.402L130.968 132.432Z" fill="#236DC8"/>
<path opacity="0.3" d="M140.352 143.952C137.352 150.756 135.87 165.552 137.034 172.362C139.158 163.632 141.714 153.252 143.688 145.266C143.022 142.95 141.918 140.4 140.352 143.952Z" fill="black"/>
<path d="M120.372 237.882L111.96 235.566L112.128 232.14L121.596 235.41L120.372 237.882Z" fill="#263238"/>
<path d="M110.742 241.722C111.133 241.836 111.536 241.909 111.942 241.938C111.962 241.939 111.982 241.935 112 241.925C112.017 241.916 112.032 241.901 112.042 241.884C112.052 241.867 112.057 241.847 112.056 241.827C112.056 241.806 112.049 241.787 112.038 241.77C111.93 241.632 111 240.426 110.418 240.462C110.351 240.465 110.286 240.486 110.229 240.522C110.173 240.557 110.126 240.607 110.094 240.666C110.034 240.753 109.998 240.854 109.989 240.96C109.981 241.065 110 241.171 110.046 241.266C110.216 241.496 110.463 241.658 110.742 241.722ZM111.696 241.722C110.892 241.626 110.34 241.422 110.208 241.164C110.18 241.103 110.17 241.036 110.177 240.969C110.184 240.903 110.21 240.84 110.25 240.786C110.265 240.757 110.288 240.733 110.315 240.715C110.342 240.697 110.373 240.687 110.406 240.684C110.718 240.648 111.306 241.236 111.696 241.704V241.722Z" fill="#263238"/>
<path d="M111.9 241.932H111.948C111.965 241.928 111.982 241.92 111.995 241.909C112.009 241.897 112.019 241.883 112.026 241.866C112.026 241.818 112.536 240.63 112.242 240.066C112.205 239.995 112.153 239.934 112.088 239.887C112.024 239.84 111.949 239.809 111.87 239.796C111.785 239.77 111.694 239.774 111.611 239.807C111.528 239.84 111.459 239.899 111.414 239.976C111.168 240.408 111.51 241.494 111.852 241.884L111.9 241.932ZM111.9 240.03C111.94 240.042 111.977 240.061 112.01 240.088C112.042 240.115 112.068 240.148 112.086 240.186C112.187 240.669 112.13 241.172 111.924 241.62C111.634 241.171 111.524 240.629 111.618 240.102C111.618 240.048 111.702 239.988 111.852 240.018L111.9 240.03Z" fill="#263238"/>
<path d="M139.044 99.078C138.816 99.618 138.624 100.026 138.414 100.482C138.204 100.938 137.976 101.358 137.754 101.79C137.31 102.66 136.842 103.506 136.356 104.352C135.374 106.051 134.292 107.69 133.116 109.26C131.912 110.884 130.578 112.407 129.126 113.814C127.58 115.336 125.826 116.633 123.918 117.666L123.768 117.744C123.525 117.869 123.267 117.962 123 118.02C121.634 118.304 120.218 118.249 118.878 117.858C117.765 117.525 116.706 117.032 115.734 116.394C114.104 115.298 112.641 113.972 111.39 112.458C110.228 111.077 109.171 109.611 108.228 108.072C107.297 106.56 106.469 104.986 105.75 103.362C105.565 102.932 105.541 102.451 105.682 102.005C105.824 101.559 106.121 101.179 106.52 100.935C106.919 100.69 107.392 100.598 107.854 100.675C108.315 100.751 108.734 100.992 109.032 101.352L109.092 101.424C110.082 102.624 111.156 103.902 112.236 105.066C113.288 106.225 114.406 107.323 115.584 108.354C116.625 109.298 117.782 110.104 119.028 110.754C119.494 110.993 119.994 111.159 120.51 111.246C120.799 111.3 121.098 111.275 121.374 111.174L120.456 111.528C121.696 110.692 122.827 109.704 123.822 108.588C124.905 107.371 125.908 106.084 126.822 104.736C127.77 103.356 128.67 101.91 129.516 100.422C129.948 99.684 130.362 98.934 130.752 98.172L131.352 97.038C131.538 96.672 131.742 96.252 131.886 95.958L131.922 95.874C132.359 94.951 133.141 94.2364 134.1 93.8838C135.059 93.5312 136.117 93.5687 137.049 93.9884C137.98 94.408 138.709 95.1763 139.08 96.128C139.451 97.0797 139.434 98.1389 139.032 99.078H139.044Z" fill="#263238"/>
<path opacity="0.3" d="M129.234 107.226C131.118 102.222 135.12 102.138 136.854 103.464C136.728 103.698 136.596 103.932 136.464 104.166C135.523 105.804 134.491 107.389 133.374 108.912C132.227 110.479 130.966 111.96 129.6 113.34C129.168 113.766 128.724 114.186 128.262 114.594C128.103 112.098 128.433 109.595 129.234 107.226Z" fill="black"/>
<path d="M105.6 103.674L101.7 103.818L102.672 99.6482C104.015 99.7148 105.347 99.9158 106.65 100.248C106.887 100.32 107.104 100.447 107.283 100.618C107.462 100.789 107.599 101 107.681 101.234C107.763 101.468 107.79 101.717 107.757 101.963C107.725 102.209 107.636 102.444 107.496 102.648C107.285 102.958 107.003 103.213 106.673 103.392C106.343 103.57 105.975 103.667 105.6 103.674Z" fill="#FF8B7B"/>
<path d="M107.784 100.152C107.401 99.8486 106.963 99.6224 106.494 99.4861C106.17 101.19 104.094 104.064 104.094 104.064H105.72C105.929 104.065 106.136 104.019 106.326 103.931C106.516 103.843 106.684 103.714 106.818 103.554L107.958 102.186C108.083 102.042 108.178 101.875 108.237 101.694C108.296 101.513 108.318 101.322 108.301 101.132C108.285 100.943 108.231 100.758 108.142 100.59C108.053 100.421 107.932 100.273 107.784 100.152Z" fill="#236DC8"/>
<path d="M98.712 101.898L99.804 98.958L102.66 99.654L101.688 103.818L98.712 101.898Z" fill="#FF8B7B"/>
<path d="M147.75 245.352H143.304L143.148 235.05H147.594L147.75 245.352Z" fill="#FF8B7B"/>
<path d="M143.07 244.836H148.068C148.11 244.835 148.152 244.841 148.191 244.856C148.23 244.87 148.266 244.892 148.297 244.921C148.327 244.949 148.352 244.983 148.369 245.021C148.387 245.059 148.397 245.1 148.398 245.142L148.638 249.096C148.638 249.304 148.556 249.504 148.41 249.652C148.264 249.8 148.066 249.885 147.858 249.888C146.118 249.858 145.29 249.756 143.058 249.756C141.708 249.756 137.19 249.894 135.324 249.894C133.458 249.894 133.524 248.046 134.298 247.878C137.85 247.134 141.018 246.078 142.272 245.112C142.498 244.93 142.78 244.832 143.07 244.836Z" fill="#263238"/>
<path opacity="0.2" d="M147.6 235.056H143.148L143.232 240.366H147.678L147.6 235.056Z" fill="black"/>
<path d="M139.644 132.432C139.644 132.432 137.946 171.078 138.666 183.816C139.458 197.76 141.114 239.082 141.114 239.082H149.262C149.262 239.082 151.314 198.882 151.806 185.082C152.34 170.082 154.758 132.432 154.758 132.432H139.644Z" fill="#236DC8"/>
<path d="M149.592 239.082H140.79L140.118 235.806L149.832 236.292L149.592 239.082Z" fill="#263238"/>
<path d="M141.492 245.61C141.896 245.6 142.299 245.548 142.692 245.454C142.711 245.448 142.728 245.437 142.742 245.422C142.755 245.407 142.765 245.39 142.77 245.37C142.772 245.351 142.769 245.332 142.762 245.314C142.755 245.296 142.743 245.28 142.728 245.268C142.584 245.166 141.324 244.308 140.778 244.524C140.717 244.549 140.664 244.588 140.622 244.638C140.58 244.688 140.551 244.748 140.538 244.812C140.511 244.91 140.508 245.013 140.531 245.111C140.554 245.21 140.602 245.301 140.67 245.376C140.906 245.552 141.199 245.636 141.492 245.61ZM142.392 245.304C141.594 245.46 141.012 245.436 140.802 245.232C140.759 245.182 140.73 245.121 140.717 245.056C140.704 244.991 140.709 244.923 140.73 244.86C140.734 244.828 140.747 244.798 140.767 244.773C140.787 244.747 140.814 244.728 140.844 244.716C141.138 244.602 141.876 244.974 142.392 245.304Z" fill="#263238"/>
<path d="M142.656 245.454C142.672 245.459 142.688 245.459 142.704 245.454C142.719 245.446 142.732 245.433 142.741 245.419C142.751 245.404 142.756 245.387 142.758 245.37C142.758 245.316 142.86 244.038 142.41 243.606C142.353 243.55 142.284 243.508 142.208 243.483C142.132 243.458 142.051 243.451 141.972 243.462C141.884 243.465 141.8 243.498 141.733 243.554C141.665 243.611 141.619 243.688 141.6 243.774C141.492 244.26 142.158 245.19 142.602 245.454C142.62 245.46 142.638 245.46 142.656 245.454ZM142.056 243.654C142.097 243.653 142.138 243.661 142.176 243.676C142.215 243.691 142.249 243.715 142.278 243.744C142.526 244.172 142.629 244.669 142.572 245.16C142.188 244.83 141.744 244.122 141.81 243.804C141.81 243.744 141.858 243.672 142.008 243.654H142.056Z" fill="#263238"/>
<path d="M156.984 96.5642C157.051 96.1891 157.041 95.8044 156.955 95.4332C156.87 95.062 156.71 94.7118 156.486 94.4037C156.262 94.0956 155.978 93.8359 155.651 93.6401C155.324 93.4443 154.961 93.3165 154.584 93.2642H154.536C153.102 93.0542 151.302 92.8382 149.538 92.7542C146.171 92.5621 142.795 92.5621 139.428 92.7542C137.874 92.8982 136.356 93.1562 135.144 93.3902H135.096C134.338 93.5433 133.637 93.9002 133.067 94.4225C132.497 94.9448 132.08 95.6127 131.862 96.3542C130.41 101.244 128.676 111.228 130.944 132.426H154.734C154.902 130.302 154.428 123.39 154.776 114.588C155.124 108.539 155.861 102.518 156.984 96.5642Z" fill="#263238"/>
<path opacity="0.3" d="M156.756 97.8721C156.264 100.716 155.658 104.586 155.238 108.672C155.238 108.672 153.066 104.412 152.67 100.77C152.274 97.1281 155.4 96.8521 156.756 97.8721Z" fill="black"/>
<g opacity="0.2">
<path d="M140.802 98.4361C140.753 98.4338 140.705 98.4155 140.667 98.384C140.629 98.3525 140.602 98.3095 140.591 98.2614C140.579 98.2134 140.584 98.1629 140.603 98.1175C140.623 98.0722 140.657 98.0345 140.7 98.0101L148.116 94.1641C148.169 94.1384 148.229 94.1341 148.285 94.152C148.341 94.1698 148.388 94.2086 148.416 94.2601C148.443 94.3135 148.449 94.3755 148.431 94.4328C148.413 94.4901 148.373 94.538 148.32 94.5661L140.904 98.4001C140.873 98.4186 140.838 98.4308 140.802 98.4361Z" fill="white"/>
<path d="M144.198 98.7842C144.169 98.7854 144.14 98.7801 144.113 98.7687C144.086 98.7573 144.062 98.74 144.042 98.7182L139.974 94.6802C139.934 94.6369 139.912 94.5802 139.912 94.5212C139.912 94.4622 139.934 94.4055 139.974 94.3622C140.017 94.3208 140.074 94.2976 140.133 94.2976C140.192 94.2976 140.249 94.3208 140.292 94.3622L144.354 98.4062C144.395 98.4488 144.419 98.5058 144.419 98.5652C144.419 98.6246 144.395 98.6816 144.354 98.7242C144.333 98.7441 144.309 98.7596 144.282 98.7699C144.255 98.7802 144.227 98.7851 144.198 98.7842Z" fill="white"/>
<path d="M149.556 92.7481C146.191 92.556 142.817 92.556 139.452 92.7481H139.284C139.202 93.0569 139.183 93.3788 139.227 93.6951C139.272 94.0114 139.379 94.3157 139.542 94.5901C140.106 95.4901 141.288 95.9941 143.064 96.0901H143.73C148.53 96.0901 150.384 93.1741 150.462 93.0481L150.63 92.7781L149.556 92.7481Z" fill="white"/>
</g>
<path d="M139.932 92.7122C142.872 92.0162 143.388 90.1982 143.19 88.2002C143.143 87.6998 143.065 87.2028 142.956 86.7122L146.64 83.6522L149.346 81.4082C148.596 84.6662 147.75 90.6002 149.946 92.7722C149.946 92.7722 148.146 95.7722 143.088 95.5082C138.846 95.2742 139.932 92.7122 139.932 92.7122Z" fill="#FF8B7B"/>
<path opacity="0.2" d="M142.956 86.7121C143.065 87.2027 143.143 87.6997 143.19 88.2001C144.564 87.9241 146.4 86.4601 146.592 85.0561C146.66 84.5913 146.676 84.1204 146.64 83.6521L142.956 86.7121Z" fill="black"/>
<path d="M141 71.1001C139.002 72.3001 139.32 75.3001 138.78 77.4481C140.052 77.5741 142.056 75.3121 142.056 75.3121L143.256 71.8741L141 71.1001Z" fill="#263238"/>
<path d="M151.626 77.136C150.348 81.372 149.826 83.91 147.114 85.68C146.242 86.2633 145.227 86.5969 144.179 86.6449C143.131 86.693 142.089 86.4535 141.167 85.9524C140.246 85.4513 139.478 84.7077 138.949 83.8021C138.419 82.8964 138.147 81.8631 138.162 80.814C138.162 76.776 140.238 70.524 144.87 69.66C145.868 69.4467 146.905 69.4997 147.877 69.8137C148.848 70.1278 149.72 70.6919 150.404 71.4493C151.089 72.2068 151.562 73.131 151.776 74.1291C151.991 75.1273 151.939 76.1643 151.626 77.136Z" fill="#FF8B7B"/>
<path d="M147.636 80.7301C150.636 77.2501 146.886 75.5341 149.952 73.1161C146.502 73.2781 140.82 73.0321 139.806 70.6681C138.792 68.3041 141.912 65.1001 144.51 64.8001C147.51 64.4521 146.862 68.1661 146.862 68.1661C146.862 68.1661 158.34 67.4521 154.698 72.3661C157.458 72.1981 156.696 76.6621 151.896 80.4301C150.69 80.8321 147.636 80.7301 147.636 80.7301Z" fill="#263238"/>
<path d="M154.008 72.4261C154.008 72.4261 156.372 71.7241 156.294 69.8521C157.146 70.4401 157.236 72.2281 154.008 72.4261Z" fill="#263238"/>
<path d="M152.328 81.558C151.638 82.411 150.673 82.9983 149.598 83.22C148.236 83.466 147.918 82.206 148.596 80.976C149.196 79.872 150.654 78.414 151.878 78.72C153.102 79.026 153.198 80.484 152.328 81.558Z" fill="#FF8B7B"/>
<path d="M144.792 77.0281C144.708 77.3761 144.456 77.6281 144.222 77.5741C143.988 77.5201 143.874 77.2081 143.958 76.8601C144.042 76.5121 144.294 76.2601 144.522 76.3081C144.75 76.3561 144.876 76.6741 144.792 77.0281Z" fill="#263238"/>
<path d="M140.814 76.2301C140.73 76.5781 140.478 76.8301 140.25 76.7821C140.022 76.7341 139.896 76.4161 139.98 76.0681C140.064 75.7201 140.316 75.4681 140.544 75.5161C140.772 75.5641 140.898 75.8821 140.814 76.2301Z" fill="#263238"/>
<path d="M142.038 76.656C141.361 77.6438 140.554 78.5358 139.638 79.308C139.842 79.5279 140.092 79.7004 140.37 79.8134C140.647 79.9264 140.947 79.9771 141.246 79.962L142.038 76.656Z" fill="#FF5652"/>
<path d="M142.47 81.1861C142.885 81.2251 143.304 81.1793 143.701 81.0514C144.099 80.9235 144.465 80.7162 144.78 80.4421C144.79 80.4331 144.798 80.422 144.804 80.4096C144.81 80.3972 144.812 80.3837 144.812 80.3701C144.812 80.3565 144.81 80.343 144.804 80.3306C144.798 80.3182 144.79 80.3071 144.78 80.2981C144.76 80.2787 144.733 80.2678 144.705 80.2678C144.677 80.2678 144.65 80.2787 144.63 80.2981C144.285 80.5913 143.877 80.8008 143.438 80.9101C142.999 81.0193 142.54 81.0255 142.098 80.9281C142.085 80.9255 142.071 80.9257 142.057 80.9285C142.044 80.9314 142.031 80.9369 142.02 80.9447C142.009 80.9525 142 80.9625 141.992 80.9741C141.985 80.9857 141.98 80.9986 141.978 81.0121C141.973 81.0399 141.978 81.0687 141.994 81.0923C142.01 81.1159 142.034 81.1323 142.062 81.1381L142.47 81.1861Z" fill="#263238"/>
<path d="M146.328 76.056C146.361 76.067 146.397 76.067 146.43 76.056C146.455 76.045 146.478 76.0291 146.497 76.0091C146.516 75.9891 146.53 75.9655 146.54 75.9398C146.549 75.914 146.554 75.8865 146.552 75.8591C146.551 75.8316 146.544 75.8048 146.532 75.78C146.403 75.4732 146.2 75.2031 145.942 74.9937C145.683 74.7843 145.377 74.6422 145.05 74.58C144.994 74.5731 144.938 74.588 144.894 74.6216C144.849 74.6551 144.819 74.7048 144.81 74.76C144.807 74.7876 144.809 74.8156 144.816 74.8424C144.824 74.8691 144.837 74.8941 144.854 74.9159C144.871 74.9377 144.893 74.9558 144.917 74.9692C144.942 74.9826 144.968 74.9911 144.996 74.994C145.25 75.0477 145.488 75.1619 145.688 75.3269C145.889 75.492 146.046 75.703 146.148 75.942C146.166 75.975 146.191 76.0028 146.223 76.0228C146.254 76.0428 146.291 76.0542 146.328 76.056Z" fill="#263238"/>
<path d="M139.83 73.8421C139.862 73.8538 139.897 73.8567 139.931 73.8503C139.965 73.844 139.996 73.8287 140.022 73.8061C140.229 73.6336 140.474 73.5118 140.736 73.4504C140.999 73.3889 141.272 73.3895 141.534 73.4521C141.56 73.4607 141.588 73.4641 141.616 73.462C141.644 73.4599 141.671 73.4524 141.696 73.4399C141.72 73.4273 141.742 73.41 141.761 73.389C141.779 73.3679 141.792 73.3435 141.801 73.3171C141.81 73.2907 141.813 73.2628 141.811 73.2351C141.809 73.2074 141.801 73.1804 141.789 73.1556C141.776 73.1308 141.759 73.1087 141.738 73.0906C141.717 73.0725 141.692 73.0587 141.666 73.0501C141.338 72.969 140.995 72.9652 140.665 73.0391C140.335 73.1131 140.026 73.2626 139.764 73.4761C139.72 73.5104 139.692 73.5606 139.685 73.6156C139.679 73.6707 139.694 73.7263 139.728 73.7701C139.752 73.8055 139.789 73.831 139.83 73.8421Z" fill="#263238"/>
<path d="M157.2 94.854L157.698 95.532L158.148 96.168C158.448 96.594 158.718 97.02 159 97.446C159.546 98.304 160.062 99.174 160.56 100.05C161.558 101.801 162.463 103.604 163.272 105.45C163.692 106.362 164.052 107.31 164.436 108.24C164.82 109.17 165.144 110.136 165.438 111.108C166.07 113.043 166.591 115.012 166.998 117.006L167.046 117.234C167.134 117.637 167.142 118.053 167.069 118.458C166.996 118.864 166.843 119.251 166.62 119.598C165.847 120.785 164.93 121.871 163.89 122.832C162.82 123.812 161.606 124.622 160.29 125.232C158.991 125.838 157.6 126.223 156.174 126.372C155.476 126.444 154.774 126.456 154.074 126.408C153.726 126.408 153.378 126.342 153.03 126.288L152.502 126.186L151.902 126.036C151.831 126.019 151.77 125.975 151.732 125.913C151.694 125.851 151.682 125.777 151.698 125.706L152.526 122.226C152.526 122.196 152.682 122.19 152.778 122.166L153.108 122.1C153.336 122.052 153.558 121.998 153.786 121.938C154.231 121.818 154.666 121.665 155.088 121.482C155.906 121.146 156.672 120.696 157.362 120.144C158.713 119.032 159.793 117.626 160.518 116.034L160.14 118.626C159.624 116.928 159.078 115.248 158.418 113.586C157.758 111.924 157.038 110.292 156.252 108.684C155.466 107.076 154.626 105.486 153.72 103.938C153.276 103.164 152.808 102.402 152.34 101.646L151.626 100.53L151.272 99.99L150.942 99.51L150.822 99.33C150.229 98.4842 149.995 97.4373 150.174 96.4195C150.352 95.4018 150.927 94.4966 151.773 93.903C152.619 93.3094 153.666 93.0762 154.684 93.2545C155.701 93.4329 156.607 94.0082 157.2 94.854Z" fill="#263238"/>
<path d="M149.268 125.688L147.978 127.8L153.576 127.578C153.576 127.578 155.046 123.81 153.042 123.216L152.262 123.426C151.014 123.775 149.945 124.583 149.268 125.688Z" fill="#FF8B7B"/>
<path d="M151.572 122.73C151.169 123.003 150.822 123.351 150.552 123.756C152.076 124.584 154.2 127.404 154.2 127.404L154.692 125.856C154.755 125.656 154.772 125.445 154.744 125.238C154.716 125.031 154.643 124.832 154.53 124.656L153.6 123.156C153.498 122.991 153.364 122.848 153.206 122.737C153.047 122.625 152.867 122.547 152.678 122.507C152.488 122.467 152.292 122.467 152.102 122.505C151.912 122.543 151.731 122.62 151.572 122.73Z" fill="#236DC8"/>
<path d="M148.47 131.052L153.084 130.644L153.576 127.578L147.978 127.8L148.47 131.052Z" fill="#FF8B7B"/>
<path d="M91.836 57.8039L91.53 57.2879C92.4099 56.7665 93.3263 56.3093 94.272 55.9199L94.5 56.4779C93.5804 56.8532 92.6899 57.2965 91.836 57.8039Z" fill="#236DC8"/>
<path d="M83.076 68.3999L82.476 68.1959C83.8984 64.2575 86.4717 60.8375 89.862 58.3799L90.216 58.8659C86.9327 61.2549 84.4447 64.5771 83.076 68.3999Z" fill="#236DC8"/>
<path d="M102.12 93.7019C112.32 93.7019 120.588 85.4335 120.588 75.2339C120.588 65.0343 112.32 56.7659 102.12 56.7659C91.9204 56.7659 83.652 65.0343 83.652 75.2339C83.652 85.4335 91.9204 93.7019 102.12 93.7019Z" fill="#236DC8"/>
<path opacity="0.6" d="M117.546 75.2338C117.545 78.8327 116.285 82.3179 113.986 85.0862C111.686 87.8544 108.491 89.7315 104.953 90.3924C101.415 91.0533 97.7579 90.4565 94.6138 88.7053C91.4697 86.9541 89.0369 84.1587 87.7364 80.803C86.4359 77.4473 86.3497 73.7425 87.4926 70.33C88.6354 66.9174 90.9356 64.0118 93.9947 62.1161C97.0539 60.2205 100.68 59.4541 104.244 59.9497C107.809 60.4453 111.088 62.1716 113.514 64.8298C113.519 64.8277 113.524 64.8265 113.529 64.8265C113.534 64.8265 113.539 64.8277 113.544 64.8298C116.131 67.6762 117.558 71.3877 117.546 75.2338Z" fill="white"/>
<path d="M117.546 75.2339C117.546 78.2325 116.672 81.166 115.031 83.6757C113.39 86.1854 111.053 88.1624 108.306 89.3649C105.559 90.5674 102.522 90.9433 99.5646 90.4465C96.6075 89.9498 93.8592 88.602 91.656 86.5679C88.9623 83.6326 87.5087 79.7689 87.5996 75.7859C87.6905 71.8029 89.3189 68.0095 92.1438 65.2001C94.9687 62.3907 98.771 60.7832 102.754 60.7142C106.738 60.6452 110.594 62.1201 113.514 64.83C113.519 64.8278 113.524 64.8267 113.529 64.8267C113.534 64.8267 113.539 64.8278 113.544 64.83C116.131 67.6763 117.558 71.3878 117.546 75.2339Z" fill="white"/>
<path d="M102.12 76.1338C102.002 76.134 101.885 76.1108 101.776 76.0655C101.666 76.0202 101.567 75.9537 101.484 75.8698L93.96 68.3458C93.8716 68.2634 93.8007 68.164 93.7515 68.0536C93.7023 67.9432 93.6759 67.8241 93.6737 67.7032C93.6716 67.5824 93.6938 67.4623 93.7391 67.3503C93.7843 67.2382 93.8517 67.1364 93.9372 67.051C94.0226 66.9655 94.1245 66.8981 94.2365 66.8529C94.3486 66.8076 94.4686 66.7854 94.5895 66.7875C94.7103 66.7896 94.8295 66.8161 94.9399 66.8653C95.0503 66.9145 95.1496 66.9854 95.232 67.0738L102.12 73.9618L106.098 69.9838C106.269 69.8248 106.494 69.7383 106.727 69.7424C106.961 69.7465 107.183 69.841 107.348 70.0059C107.513 70.1708 107.607 70.3932 107.611 70.6264C107.616 70.8595 107.529 71.0852 107.37 71.2558L102.756 75.8698C102.587 76.0381 102.359 76.1329 102.12 76.1338Z" fill="#263238"/>
</svg>
