<svg width="29" height="29" viewBox="0 0 29 29" fill="none" xmlns="http://www.w3.org/2000/svg">
<path d="M15.252 14.4001L11.004 18.6481C10.7805 18.8729 10.6551 19.1771 10.6551 19.4941C10.6551 19.8111 10.7805 20.1153 11.004 20.3401C11.1156 20.4526 11.2483 20.5419 11.3946 20.6028C11.5408 20.6637 11.6976 20.6951 11.856 20.6951C12.0145 20.6951 12.1713 20.6637 12.3175 20.6028C12.4638 20.5419 12.5965 20.4526 12.708 20.3401L17.796 15.2521C17.9085 15.1406 17.9978 15.0078 18.0587 14.8616C18.1196 14.7154 18.151 14.5585 18.151 14.4001C18.151 14.2417 18.1196 14.0848 18.0587 13.9386C17.9978 13.7924 17.9085 13.6597 17.796 13.5481L12.708 8.40011C12.5959 8.28889 12.4629 8.2009 12.3167 8.14118C12.1705 8.08147 12.014 8.0512 11.856 8.05211C11.6981 8.0512 11.5416 8.08147 11.3954 8.14118C11.2492 8.2009 11.1162 8.28889 11.004 8.40011C10.7805 8.62494 10.6551 8.92909 10.6551 9.24611C10.6551 9.56313 10.7805 9.86728 11.004 10.0921L15.252 14.4001Z" fill="#2E3033"/>
</svg>
