<svg width="100" height="100" viewBox="0 0 100 100" fill="none" xmlns="http://www.w3.org/2000/svg">
<path d="M49.9999 8.33337C27.0833 8.33337 8.33328 27.0834 8.33328 50C8.33328 72.9167 27.0833 91.6667 49.9999 91.6667C72.9166 91.6667 91.6666 72.9167 91.6666 50C91.6666 27.0834 72.9166 8.33337 49.9999 8.33337ZM67.5 42.9167L47.4999 62.9167C45.8333 64.5834 43.3333 64.5834 41.6666 62.9167L32.4999 53.75C30.8333 52.0834 30.8333 49.5834 32.4999 47.9167C34.1666 46.25 36.6666 46.25 38.3333 47.9167L44.5833 54.1667L61.6666 37.0834C63.3333 35.4167 65.8333 35.4167 67.5 37.0834C69.1666 38.75 69.1666 41.25 67.5 42.9167Z" fill="#236DC8"/>
</svg>
