<svg width="21" height="20" viewBox="0 0 21 20" fill="none" xmlns="http://www.w3.org/2000/svg">
<path d="M10.3333 1.66663C5.74998 1.66663 1.99998 5.41663 1.99998 9.99996C1.99998 14.5833 5.74998 18.3333 10.3333 18.3333C14.9167 18.3333 18.6667 14.5833 18.6667 9.99996C18.6667 5.41663 14.9167 1.66663 10.3333 1.66663ZM13.4167 11.9166C13.75 12.25 13.75 12.75 13.4167 13.0833C13.0833 13.4166 12.5833 13.4166 12.25 13.0833L10.3333 11.1666L8.41665 13.0833C8.08332 13.4166 7.58332 13.4166 7.24999 13.0833C6.91665 12.75 6.91665 12.25 7.24999 11.9166L9.16665 9.99996L7.24999 8.08329C6.91665 7.74996 6.91665 7.24996 7.24999 6.91663C7.58332 6.58329 8.08332 6.58329 8.41665 6.91663L10.3333 8.83329L12.25 6.91663C12.5833 6.58329 13.0833 6.58329 13.4167 6.91663C13.75 7.24996 13.75 7.74996 13.4167 8.08329L11.5 9.99996L13.4167 11.9166Z" fill="#236DC8"/>
</svg>
